<svg width="175" height="133" viewBox="0 0 175 133" fill="none" xmlns="http://www.w3.org/2000/svg">
<path d="M28.6502 48.1603C28.7727 48.0378 28.9564 47.9766 29.2013 47.9766H31.4976C31.7119 47.9766 31.8956 48.0378 32.0487 48.1603C32.2018 48.2827 32.2784 48.4511 32.2784 48.6655V80.1708C32.2784 80.6301 32.0181 80.8597 31.4976 80.8597H29.2013C28.7114 80.8597 28.4665 80.6301 28.4665 80.1708V70.71H8.99376V80.1708C8.99376 80.6301 8.73351 80.8597 8.21302 80.8597H5.87078C5.41152 80.8597 5.18188 80.6301 5.18188 80.1708V48.6655C5.18188 48.4205 5.24312 48.2521 5.36559 48.1603C5.51868 48.0378 5.68707 47.9766 5.87078 47.9766H8.25894C8.44265 47.9766 8.61104 48.0378 8.76413 48.1603C8.91722 48.2827 8.99376 48.4511 8.99376 48.6655V57.3455H28.4665V48.6655C28.4665 48.4511 28.5277 48.2827 28.6502 48.1603ZM28.4665 61.1574H8.99376V66.8522H28.4665V61.1574ZM39.6987 47.9766C40.2192 47.9766 40.4794 48.2215 40.4794 48.7114V80.1708C40.4794 80.6301 40.2192 80.8597 39.6987 80.8597H37.3105C36.8513 80.8597 36.6216 80.6301 36.6216 80.1708V48.6655C36.6216 48.4511 36.6829 48.2827 36.8053 48.1603C36.9584 48.0378 37.1268 47.9766 37.3105 47.9766H39.6987ZM53.986 53.0284C53.9248 53.0897 53.787 53.2734 53.5727 53.5796C53.389 53.8857 53.19 54.2685 52.9757 54.7277C52.7613 55.1564 52.5623 55.6156 52.3786 56.1055C52.2255 56.5954 52.149 57.07 52.149 57.5292C52.149 58.7845 52.5623 59.9633 53.389 61.0655C53.9401 61.8004 54.5065 62.5199 55.0883 63.2241C55.7006 63.8977 56.2364 64.6019 56.6957 65.3367C57.1856 66.0715 57.5836 66.8675 57.8898 67.7248C58.1959 68.5821 58.349 69.5619 58.349 70.6641C58.349 72.0113 58.1041 73.2972 57.6142 74.5219C57.1243 75.716 56.4507 76.7876 55.5935 77.7368C54.7362 78.6859 53.7105 79.4513 52.5164 80.0331C51.3223 80.6148 50.0364 80.9516 48.6586 81.0434C48.4137 81.0434 48.23 80.9669 48.1075 80.8138C47.985 80.6607 47.9238 80.4617 47.9238 80.2168V78.196C47.9238 77.7674 48.1687 77.5224 48.6586 77.4612C49.4853 77.3693 50.266 77.0938 51.0008 76.6345C51.7357 76.1753 52.3786 75.6242 52.9297 74.9812C53.4809 74.3076 53.9248 73.5728 54.2616 72.7767C54.5984 71.9501 54.7668 71.1387 54.7668 70.3426C54.7668 69.4241 54.5525 68.5821 54.1238 67.8167C53.7258 67.0513 53.2359 66.3317 52.6542 65.6582C52.0724 64.9846 51.4754 64.311 50.8631 63.6374C50.2813 62.9638 49.8068 62.2596 49.4393 61.5248C48.7658 60.1776 48.429 58.7845 48.429 57.3455C48.429 56.029 48.6739 54.7583 49.1638 53.5336C49.6843 52.3089 50.3885 51.222 51.2764 50.2729C52.1643 49.3237 53.2053 48.543 54.3994 47.9306C55.6241 47.3183 56.9406 46.9815 58.349 46.9203C58.594 46.9203 58.7777 46.9968 58.9001 47.1499C59.0226 47.303 59.0839 47.502 59.0839 47.7469V49.8595C59.0839 50.2576 58.8389 50.4872 58.349 50.5484C57.4611 50.6709 56.6498 50.9618 55.9149 51.421C55.2107 51.8497 54.5678 52.3855 53.986 53.0284ZM82.0685 47.9766C82.5278 47.9766 82.8033 48.2062 82.8952 48.6655V50.9158C82.8952 51.4976 82.6196 51.7884 82.0685 51.7884H72.424V80.1249C72.424 80.3086 72.3474 80.477 72.1944 80.6301C72.0719 80.7832 71.8882 80.8597 71.6432 80.8597H69.3469C68.8571 80.8597 68.6121 80.6148 68.6121 80.1249V48.6655C68.6121 48.2062 68.8571 47.9766 69.3469 47.9766H82.0685ZM104.204 46.9662C106.531 46.9662 108.72 47.4101 110.771 48.298C112.823 49.1859 114.614 50.4106 116.145 51.9721C117.706 53.503 118.931 55.2941 119.819 57.3455C120.707 59.3969 121.151 61.586 121.151 63.913C121.151 66.2399 120.707 68.429 119.819 70.4804C118.931 72.5318 117.706 74.3382 116.145 75.8997C114.614 77.4306 112.823 78.64 110.771 79.5279C108.72 80.4158 106.531 80.8597 104.204 80.8597C101.846 80.8597 99.6419 80.4158 97.5905 79.5279C95.5391 78.64 93.748 77.4306 92.2171 75.8997C90.6862 74.3382 89.4768 72.5318 88.5889 70.4804C87.701 68.429 87.2571 66.2399 87.2571 63.913C87.2571 61.586 87.701 59.3969 88.5889 57.3455C89.4768 55.2941 90.6862 53.503 92.2171 51.9721C93.748 50.4106 95.5391 49.1859 97.5905 48.298C99.6419 47.4101 101.846 46.9662 104.204 46.9662ZM104.204 77.1397C106.01 77.1397 107.71 76.7876 109.302 76.0834C110.924 75.3792 112.333 74.4301 113.527 73.236C114.721 72.0419 115.655 70.6488 116.328 69.0567C117.033 67.434 117.385 65.7194 117.385 63.913C117.385 62.0759 117.033 60.3613 116.328 58.7692C115.655 57.1465 114.721 55.7381 113.527 54.544C112.333 53.3499 110.924 52.4161 109.302 51.7425C107.71 51.0383 106.01 50.6862 104.204 50.6862C102.367 50.6862 100.637 51.0383 99.0142 51.7425C97.4221 52.4161 96.029 53.3499 94.8349 54.544C93.6408 55.7381 92.6917 57.1465 91.9875 58.7692C91.3139 60.3613 90.9771 62.0759 90.9771 63.913C90.9771 65.7194 91.3139 67.434 91.9875 69.0567C92.6917 70.6488 93.6408 72.0419 94.8349 73.236C96.029 74.4301 97.4221 75.3792 99.0142 76.0834C100.637 76.7876 102.367 77.1397 104.204 77.1397ZM139.434 64.8774C140.261 64.8162 141.026 64.6019 141.73 64.2344C142.465 63.8364 143.108 63.3465 143.659 62.7648C144.21 62.1525 144.639 61.4636 144.945 60.6981C145.282 59.9327 145.45 59.1366 145.45 58.31C145.45 57.4833 145.282 56.6719 144.945 55.8759C144.608 55.0798 144.149 54.3756 143.567 53.7633C143.016 53.1509 142.343 52.661 141.547 52.2936C140.781 51.9262 139.97 51.7425 139.112 51.7425H128.044C127.554 51.7425 127.309 51.4823 127.309 50.9618V48.6655C127.309 48.2062 127.554 47.9766 128.044 47.9766H139.158C140.536 47.9766 141.837 48.2521 143.062 48.8032C144.287 49.3543 145.358 50.1045 146.277 51.0536C147.195 51.9721 147.93 53.0591 148.481 54.3144C149.033 55.5697 149.308 56.8862 149.308 58.264C149.308 59.4275 149.109 60.5603 148.711 61.6626C148.313 62.7342 147.762 63.7139 147.058 64.6019C146.384 65.4898 145.573 66.2705 144.624 66.9441C143.674 67.6177 142.633 68.1076 141.501 68.4137L148.665 80.3546C148.757 80.5383 148.803 80.6607 148.803 80.722C148.803 80.8138 148.665 80.8597 148.39 80.8597H144.945C144.7 80.8597 144.501 80.7985 144.348 80.676C144.195 80.5229 144.057 80.3546 143.935 80.1708L137 68.6434H129.146V80.1708C129.146 80.6301 128.917 80.8597 128.458 80.8597H126.069C125.58 80.8597 125.335 80.6301 125.335 80.1708V65.6582C125.335 65.1377 125.58 64.8774 126.069 64.8774H139.434ZM168.514 47.9766C168.698 47.9766 168.789 48.0378 168.789 48.1603C168.789 48.2827 168.728 48.4358 168.606 48.6195L157.492 66.393V80.079C157.492 80.5995 157.277 80.8597 156.849 80.8597H154.46C153.94 80.8597 153.68 80.5995 153.68 80.079V66.1633L162.176 51.8344H154.506C154.292 51.8344 154.124 51.7578 154.001 51.6047C153.879 51.421 153.817 51.222 153.817 51.0077V48.6655C153.817 48.2062 154.047 47.9766 154.506 47.9766H168.514Z" fill="#647D1C"/>
<path d="M25.4281 89.3549C25.5506 89.11 25.673 88.9569 25.7955 88.8957C25.918 88.8344 26.1017 88.8038 26.3466 88.8038H27.8163C28.0612 88.8038 28.2449 88.8344 28.3674 88.8957C28.4899 88.9569 28.597 89.11 28.6889 89.3549L41.7319 120.677C41.7931 120.86 41.8238 120.998 41.8238 121.09C41.8238 121.488 41.5788 121.687 41.0889 121.687H38.7467C38.2874 121.687 37.966 121.488 37.7823 121.09C37.5986 120.692 37.2924 119.911 36.8637 118.748L27.0814 94.7283L17.2992 118.748C17.0542 119.329 16.8552 119.804 16.7021 120.171C16.5796 120.539 16.4572 120.845 16.3347 121.09C16.2429 121.304 16.1204 121.457 15.9673 121.549C15.8142 121.641 15.6305 121.687 15.4162 121.687H13.0739C12.5534 121.687 12.2932 121.488 12.2932 121.09C12.2932 120.998 12.3238 120.86 12.3851 120.677L19.0444 104.74C18.3402 103.056 17.6513 101.388 16.9777 99.7343C16.3041 98.0503 15.6458 96.3663 15.0028 94.6824L5.22056 118.748C4.97562 119.329 4.77661 119.804 4.62352 120.171C4.50105 120.539 4.37858 120.845 4.25611 121.09C4.13364 121.304 3.99586 121.457 3.84277 121.549C3.7203 121.641 3.55191 121.687 3.33758 121.687H0.995346C0.474848 121.687 0.2146 121.488 0.2146 121.09C0.2146 120.906 0.245217 120.768 0.306452 120.677L13.3495 89.309C13.5026 88.9722 13.7935 88.8038 14.2221 88.8038H15.6917C15.9367 88.8038 16.1204 88.8344 16.2429 88.8957C16.3653 88.9263 16.4878 89.0794 16.6103 89.3549L21.0192 100.01L25.4281 89.3549ZM58.5398 87.7935C60.8668 87.7935 63.0559 88.2374 65.1073 89.1253C67.1587 90.0132 68.9498 91.2379 70.4807 92.7994C72.0421 94.3303 73.2668 96.1214 74.1548 98.1728C75.0427 100.224 75.4866 102.413 75.4866 104.74C75.4866 107.067 75.0427 109.256 74.1548 111.308C73.2668 113.359 72.0421 115.165 70.4807 116.727C68.9498 118.258 67.1587 119.467 65.1073 120.355C63.0559 121.243 60.8668 121.687 58.5398 121.687C56.1823 121.687 53.9778 121.243 51.9265 120.355C49.8751 119.467 48.084 118.258 46.5531 116.727C45.0222 115.165 43.8128 113.359 42.9249 111.308C42.037 109.256 41.5931 107.067 41.5931 104.74C41.5931 102.413 42.037 100.224 42.9249 98.1728C43.8128 96.1214 45.0222 94.3303 46.5531 92.7994C48.084 91.2379 49.8751 90.0132 51.9265 89.1253C53.9778 88.2374 56.1823 87.7935 58.5398 87.7935ZM58.5398 117.967C60.3463 117.967 62.0455 117.615 63.6376 116.911C65.2604 116.206 66.6688 115.257 67.8629 114.063C69.0569 112.869 69.9908 111.476 70.6644 109.884C71.3686 108.261 71.7207 106.547 71.7207 104.74C71.7207 102.903 71.3686 101.189 70.6644 99.5965C69.9908 97.9738 69.0569 96.5654 67.8629 95.3713C66.6688 94.1772 65.2604 93.2434 63.6376 92.5698C62.0455 91.8656 60.3463 91.5135 58.5398 91.5135C56.7028 91.5135 54.9729 91.8656 53.3502 92.5698C51.7581 93.2434 50.365 94.1772 49.1709 95.3713C47.9768 96.5654 47.0277 97.9738 46.3235 99.5965C45.6499 101.189 45.3131 102.903 45.3131 104.74C45.3131 106.547 45.6499 108.261 46.3235 109.884C47.0277 111.476 47.9768 112.869 49.1709 114.063C50.365 115.257 51.7581 116.206 53.3502 116.911C54.9729 117.615 56.7028 117.967 58.5398 117.967ZM106.997 88.7579C107.333 88.7579 107.563 88.8344 107.686 88.9875C107.808 89.11 107.869 89.2784 107.869 89.4927L107.64 120.998C107.64 121.457 107.364 121.687 106.813 121.687H103.874L83.4824 94.1313V111.216L91.5195 111.262C91.9788 111.262 92.2084 111.507 92.2084 111.997V114.339C92.2084 114.553 92.1472 114.737 92.0247 114.89C91.9023 115.043 91.7186 115.12 91.4736 115.12L80.3595 115.074C79.9002 115.074 79.6706 114.875 79.6706 114.477V89.3549C79.6706 88.8651 79.9308 88.6201 80.4513 88.6201H83.6202C83.9264 88.6201 84.1713 88.7426 84.355 88.9875L103.874 115.303L104.057 89.4468C104.057 89.2631 104.119 89.11 104.241 88.9875C104.394 88.8344 104.563 88.7579 104.746 88.7579H106.767H106.997ZM95.5151 117.829C95.9744 117.829 96.204 118.074 96.204 118.564V120.906C96.204 121.121 96.1275 121.304 95.9744 121.457C95.8519 121.61 95.6835 121.687 95.4692 121.687H80.3595C79.9002 121.687 79.6706 121.457 79.6706 120.998V118.656C79.6706 118.411 79.7318 118.212 79.8543 118.059C79.9767 117.906 80.1605 117.829 80.4054 117.829H95.5151ZM130.051 88.8038C130.51 88.8038 130.786 89.0335 130.878 89.4927V91.7431C130.878 92.3248 130.602 92.6157 130.051 92.6157H120.406V120.952C120.406 121.136 120.33 121.304 120.177 121.457C120.054 121.61 119.871 121.687 119.626 121.687H117.329C116.839 121.687 116.595 121.442 116.595 120.952V89.4927C116.595 89.0335 116.839 88.8038 117.329 88.8038H130.051ZM158.708 88.9875C158.83 88.8651 159.014 88.8038 159.259 88.8038H161.555C161.77 88.8038 161.953 88.8651 162.106 88.9875C162.259 89.11 162.336 89.2784 162.336 89.4927V120.998C162.336 121.457 162.076 121.687 161.555 121.687H159.259C158.769 121.687 158.524 121.457 158.524 120.998V111.537H139.051V120.998C139.051 121.457 138.791 121.687 138.271 121.687H135.928C135.469 121.687 135.24 121.457 135.24 120.998V89.4927C135.24 89.2478 135.301 89.0794 135.423 88.9875C135.576 88.8651 135.745 88.8038 135.928 88.8038H138.317C138.5 88.8038 138.669 88.8651 138.822 88.9875C138.975 89.11 139.051 89.2784 139.051 89.4927V98.1728H158.524V89.4927C158.524 89.2784 158.585 89.11 158.708 88.9875ZM158.524 101.985H139.051V107.68H158.524V101.985Z" fill="#E8AA24"/>
<path d="M8.74264 6.68438C8.17575 6.68438 7.89231 6.38322 7.89231 5.7809V3.12362C7.89231 2.59217 8.17575 2.32644 8.74264 2.32644H21.6039C22.9148 2.32644 24.1726 2.59217 25.3772 3.12362C26.6173 3.61965 27.6979 4.31054 28.6191 5.1963C29.5403 6.08206 30.2843 7.14497 30.8512 8.38503C31.4181 9.58967 31.7015 10.9183 31.7015 12.371C31.7015 13.859 31.4004 15.2762 30.798 16.6226C30.1957 17.969 29.3277 19.1559 28.1939 20.1833C29.8946 21.2108 31.2409 22.5572 32.233 24.2224C33.225 25.8876 33.721 27.6769 33.721 29.5901C33.721 31.0428 33.4376 32.4245 32.8707 33.7355C32.3038 35.0464 31.5244 36.1979 30.5323 37.1899C29.5757 38.182 28.4419 38.9614 27.131 39.5283C25.8555 40.0952 24.5092 40.3787 23.0919 40.3787H6.08536C5.48304 40.3787 5.18188 40.1129 5.18188 39.5815V19.4393C5.18188 18.8724 5.46533 18.589 6.03221 18.589H21.285C22.0999 18.589 22.8616 18.4295 23.5702 18.1107C24.2789 17.7918 24.8989 17.3666 25.4303 16.8352C25.9618 16.3037 26.387 15.6837 26.7058 14.9751C27.0247 14.2665 27.1841 13.5047 27.1841 12.6898C27.1841 10.9892 26.635 9.57195 25.5366 8.43818C24.4737 7.26898 23.0742 6.68438 21.3381 6.68438H8.74264ZM9.53982 36.0207H23.0388C23.8891 36.0207 24.6863 35.8436 25.4303 35.4893C26.1744 35.0995 26.8121 34.6035 27.3436 34.0012C27.9105 33.3989 28.3533 32.708 28.6722 31.9285C28.9911 31.149 29.1682 30.3519 29.2037 29.537C29.2037 28.6866 29.0442 27.8717 28.7254 27.0923C28.4419 26.2774 28.0168 25.5688 27.4499 24.9664C26.9184 24.3287 26.263 23.8327 25.4835 23.4784C24.7395 23.1241 23.9246 22.9469 23.0388 22.9469H9.53982V36.0207ZM39.5583 40.3787C39.0269 40.3787 38.7612 40.1129 38.7612 39.5815V3.12362C38.7612 2.59217 39.0446 2.32644 39.6115 2.32644H42.3219C42.8534 2.32644 43.1191 2.59217 43.1191 3.12362V35.9676H61.7732C62.0566 35.9676 62.2515 36.0739 62.3578 36.2865C62.4995 36.4636 62.5704 36.6585 62.5704 36.8711V39.5815C62.4995 40.0775 62.2338 40.3432 61.7732 40.3787H39.5583ZM85.8996 2.96419C88.8049 9.69596 91.409 15.7191 93.712 21.0337C94.6686 23.3012 95.6075 25.5156 96.5287 27.6769C97.4853 29.8381 98.3357 31.7691 99.0797 33.4697C99.9655 35.4538 100.78 37.3317 101.524 39.1032C101.595 39.2803 101.631 39.422 101.631 39.5283C101.666 39.5992 101.684 39.6701 101.684 39.7409C101.684 40.1661 101.383 40.3787 100.78 40.3787H68.6273C67.9541 40.3787 67.6175 40.1129 67.6175 39.5815C67.6175 39.3689 67.653 39.2095 67.7238 39.1032L83.5612 2.96419C83.7738 2.50359 84.1458 2.2733 84.6773 2.2733H84.8367C85.191 2.2733 85.4213 2.32644 85.5276 2.43273C85.6339 2.50359 85.7579 2.68075 85.8996 2.96419ZM73.9419 35.8613H95.4658L84.7304 10.564L73.9419 35.8613ZM107.282 30.7062C107.069 30.3519 106.98 30.2101 107.016 30.281C107.087 30.3519 107.175 30.4936 107.282 30.7062C107.388 30.8833 107.459 31.025 107.494 31.1313C107.565 31.2022 107.494 31.0605 107.282 30.7062C106.112 28.6866 105.315 26.5431 104.89 24.2756C104.5 22.008 104.5 19.7228 104.89 17.4198C105.457 14.1602 106.768 11.2372 108.823 8.65076C110.913 6.02892 113.5 4.06253 116.582 2.75161C118.176 2.07843 119.806 1.63555 121.471 1.42297C123.137 1.17495 124.802 1.15724 126.467 1.36982C128.132 1.54697 129.744 1.93671 131.303 2.53902C132.898 3.14134 134.386 3.93852 135.768 4.93057C136.051 5.14316 136.228 5.33802 136.299 5.51518C136.37 5.6569 136.334 5.85176 136.193 6.09978L134.864 8.27874C134.404 8.98735 133.907 9.09364 133.376 8.59762C132.136 7.641 130.79 6.95011 129.337 6.52494C127.884 6.06435 126.379 5.7809 124.82 5.67461C123.261 5.67461 121.737 5.88719 120.249 6.31236C118.796 6.73752 117.432 7.35756 116.157 8.17245C114.881 8.95192 113.73 9.92626 112.702 11.0955C111.71 12.2292 110.895 13.5047 110.258 14.9219C109.585 16.41 109.177 17.969 109.035 19.5987C108.929 21.2285 109.053 22.8229 109.407 24.3818C109.762 25.9054 110.346 27.358 111.161 28.7398C112.012 30.1216 113.074 31.3439 114.35 32.4068C115.625 33.4697 117.007 34.2846 118.495 34.8515C120.019 35.4184 121.595 35.7196 123.225 35.755C124.89 35.7904 126.573 35.5778 128.274 35.1173C130.01 34.6212 131.711 33.8418 133.376 32.7788C133.659 32.6017 133.89 32.5131 134.067 32.5131C134.244 32.5131 134.439 32.6903 134.652 33.0446C134.935 33.5052 135.183 33.9126 135.396 34.2669C135.573 34.5858 135.732 34.8692 135.874 35.1173C136.016 35.3653 136.104 35.507 136.14 35.5424C136.281 35.7904 136.281 36.003 136.14 36.1802C135.998 36.3573 135.821 36.5345 135.608 36.7116C133.376 38.3768 130.878 39.4752 128.115 40.0066C125.386 40.5381 122.658 40.5027 119.93 39.9004C117.273 39.298 114.828 38.1997 112.596 36.6053C110.399 35.011 108.628 33.0446 107.282 30.7062Z" fill="#E55F13"/>
<path d="M98.363 38.0134L85.5439 8.40271L82.8355 10.0277L70.5579 38.0134H98.363Z" fill="#E55F13"/>
<path d="M168.426 38.8286C168.603 39.0766 168.692 39.2361 168.692 39.3069C168.692 39.4841 168.568 39.6258 168.32 39.7321C168.072 39.8029 167.788 39.8384 167.469 39.8384H163.855C163.572 39.8384 163.324 39.7498 163.111 39.5727C162.934 39.3601 162.757 39.1652 162.58 38.988L152.748 28.5715L147.859 33.6735V38.5629C147.859 39.4132 147.433 39.8384 146.583 39.8384H144.723C143.908 39.8384 143.501 39.4132 143.501 38.5629V3.00851C143.501 2.61877 143.607 2.31761 143.819 2.10503C144.032 1.85702 144.333 1.73301 144.723 1.73301H146.583C146.973 1.73301 147.274 1.85702 147.487 2.10503C147.735 2.35304 147.859 2.6542 147.859 3.00851V18.1018L158.7 6.56926C158.877 6.39211 159.072 6.21495 159.285 6.0378C159.497 5.82522 159.745 5.71893 160.029 5.71893H163.643C164.387 5.71893 164.759 5.9138 164.759 6.30353C164.759 6.44525 164.688 6.58697 164.546 6.7287L147.859 24.4262V27.3492L161.942 12.4684C162.119 12.2913 162.314 12.1141 162.527 11.937C162.739 11.7244 162.987 11.6181 163.271 11.6181H166.885C167.204 11.6181 167.522 11.7067 167.841 11.8838C168.16 12.061 168.16 12.309 167.841 12.6279L155.724 25.3828L168.426 38.8286Z" fill="#E55F13"/>
</svg>
