<?xml version="1.0" standalone="no"?>
<!DOCTYPE svg PUBLIC "-//W3C//DTD SVG 20010904//EN"
 "http://www.w3.org/TR/2001/REC-SVG-20010904/DTD/svg10.dtd">
<svg version="1.0" xmlns="http://www.w3.org/2000/svg"
 width="600.000000pt" height="286.000000pt" viewBox="0 0 600.000000 286.000000"
 preserveAspectRatio="xMidYMid meet">

<g transform="translate(0.000000,286.000000) scale(0.100000,-0.100000)"
fill="#000000" stroke="white">
<path style="fill:#e8aa25;" class="logo-path" d="M2569 2555 c-151 -25 -246 -88 -285 -191 -18 -46 -19 -84 -19 -634
l0 -585 24 -48 c32 -64 81 -96 168 -109 84 -13 167 -4 224 25 34 17 49 34 69
74 14 28 30 52 36 52 6 1 19 -26 29 -59 l18 -60 199 0 198 0 0 440 0 440 -235
0 -235 0 0 -125 c0 -104 2 -125 15 -125 13 0 15 -24 15 -153 0 -106 -4 -157
-12 -165 -18 -18 -56 -14 -67 7 -14 26 -15 875 -1 901 12 22 50 26 68 8 8 -8
12 -55 12 -145 l0 -133 220 0 220 0 0 173 c0 195 -12 255 -60 311 -34 38 -124
81 -201 97 -83 16 -314 18 -400 4z"/>
<path style="fill:#647d1d;" d="M358 2532 l-38 -3 0 -755 0 -754 360 0 360 0 0 160 c0 159 0 160 -22
160 -13 1 -72 2 -133 3 l-110 2 -3 153 -3 152 126 0 125 0 0 140 0 140 -125 0
-125 0 0 140 0 140 135 0 135 0 0 160 0 160 -32 0 c-18 0 -163 1 -323 3 -159
1 -307 1 -327 -1z"/>
<path style="fill:#e55f12" d="M1991 2530 l-183 -5 1 -119 c1 -65 4 -153 6 -195 2 -42 7 -177 10
-301 3 -124 8 -291 11 -372 6 -146 6 -148 -15 -148 -11 0 -21 6 -22 13 0 6 -2
21 -4 32 -2 11 -11 106 -20 210 -8 105 -22 258 -30 340 -8 83 -17 184 -20 225
-3 41 -10 118 -15 170 -5 52 -10 107 -10 123 l0 27 -297 -2 -298 -3 1 -27 c1
-16 2 -354 3 -753 l1 -725 191 0 190 0 -5 128 c-7 160 -14 374 -22 715 -7 265
-7 267 14 267 18 0 21 -8 27 -77 3 -43 8 -96 10 -118 2 -22 11 -119 20 -215 8
-96 17 -195 19 -220 2 -25 12 -137 21 -250 10 -113 19 -211 21 -217 3 -10 71
-13 299 -13 162 0 295 3 295 8 4 295 -2 1497 -7 1501 -4 3 -91 4 -192 1z"/>
<path style="fill:#e8aa25;" d="M4514 2528 c-2 -3 -2 -64 1 -135 9 -254 15 -433 21 -715 7 -285 7
-288 -13 -288 -18 0 -21 9 -27 78 -4 42 -16 174 -26 292 -11 118 -29 321 -40
450 -11 129 -23 254 -26 278 l-5 42 -295 0 -294 0 0 -755 0 -755 191 0 192 0
-7 257 c-3 142 -8 319 -11 393 -16 450 -16 460 5 460 26 0 24 12 56 -380 3
-36 7 -85 9 -110 3 -25 14 -151 25 -280 11 -129 22 -253 24 -275 3 -22 5 -46
5 -52 1 -10 68 -13 301 -13 l300 0 0 755 0 754 -191 3 c-105 2 -193 0 -195 -4z"/>
<path style="fill:#647d1d;" d="M4990 2532 l-25 -3 2 -727 c2 -400 3 -739 3 -754 l0 -28 355 0 355 0
-2 162 -3 162 -132 -3 -133 -3 0 156 0 156 125 0 125 0 1 123 c0 67 2 130 4
140 3 15 -8 17 -126 17 l-129 0 0 140 0 140 135 0 135 0 0 160 0 159 -332 3
c-183 2 -344 2 -358 0z"/>
<path style="fill:#647d1d;" d="M3300 2250 l0 -280 110 0 110 0 0 -95 0 -95 -110 0 -110 0 0 -95 0
-95 110 0 110 0 0 95 0 95 110 0 110 0 0 375 0 375 -220 0 -220 0 0 -280z"/>
<path style="fill:#e8aa25;" d="M2168 567 l-3 -161 -67 154 c-64 148 -68 155 -97 158 l-31 3 0 -200
0 -201 26 0 26 0 -4 154 c-1 85 -1 152 2 149 3 -2 34 -71 70 -151 60 -133 68
-147 93 -150 l27 -3 0 199 c0 190 -1 200 -20 205 -19 5 -20 -1 -22 -156z"/>
<path style="fill:#647d1d;" d="M2343 711 c-17 -11 -37 -29 -42 -40 -15 -27 -14 -263 1 -296 16 -35
57 -55 113 -55 84 0 125 39 125 120 0 35 -3 40 -22 40 -20 0 -23 -6 -25 -42
-4 -56 -26 -78 -79 -78 -34 0 -47 5 -64 27 -20 25 -21 37 -18 145 3 133 10
146 74 155 62 8 85 -19 93 -109 1 -5 10 -8 21 -8 17 0 20 7 20 45 0 35 -6 52
-28 76 -24 27 -37 33 -83 36 -42 3 -61 0 -86 -16z"/>
<path style="fill:#e8aa25;" d="M2866 722 c-17 -4 -18 -15 -14 -178 4 -203 8 -213 97 -222 61 -6 95
2 121 28 18 18 20 34 20 194 0 140 -3 175 -14 179 -8 3 -17 3 -20 0 -3 -4 -6
-77 -6 -162 0 -186 -6 -201 -74 -201 -72 0 -76 11 -76 198 0 88 -3 163 -7 165
-5 2 -16 2 -27 -1z"/>
<path style="fill:#e55f12" d="M3214 720 c-34 -13 -54 -50 -54 -98 0 -55 28 -84 104 -108 63 -20 85
-38 92 -79 8 -46 -19 -75 -69 -75 -57 0 -77 17 -84 68 -4 32 -10 42 -24 42
-16 0 -19 -8 -19 -46 0 -37 5 -51 29 -75 26 -25 37 -29 86 -29 59 0 109 19
119 45 11 30 6 110 -9 131 -7 12 -42 31 -77 44 -82 29 -98 44 -98 91 0 44 19
59 74 59 34 0 65 -20 67 -43 1 -7 2 -16 4 -22 1 -5 3 -18 3 -27 1 -11 10 -18
22 -18 17 0 20 7 20 41 0 51 -13 75 -50 94 -31 16 -102 19 -136 5z"/>
<path style="fill:#e8aa25;" d="M3653 710 c-17 -10 -36 -28 -42 -38 -16 -29 -16 -261 0 -295 17 -38
57 -57 118 -57 42 0 56 5 83 29 l33 29 3 130 c3 106 0 136 -13 162 -29 57
-121 77 -182 40z m112 -32 c36 -16 48 -72 42 -187 -5 -109 -20 -131 -87 -131
-65 0 -75 21 -75 167 0 119 1 126 24 144 27 22 59 24 96 7z"/>
<path style="fill:#647d1d;" d="M3948 722 c-16 -3 -18 -21 -18 -203 0 -192 1 -199 20 -199 19 0 20 7
21 158 l0 157 20 -45 c115 -259 121 -271 148 -268 19 2 25 8 24 26 0 12 -1
100 -2 196 -1 164 -2 174 -21 179 -19 5 -20 -1 -22 -151 l-3 -156 -64 147
c-35 81 -69 150 -75 155 -6 5 -19 7 -28 4z"/>
<path style="fill:#e55f12" d="M1840 520 c0 -191 1 -200 19 -200 11 0 21 7 23 16 2 10 2 100 0 200
-3 175 -4 184 -22 184 -19 0 -20 -8 -20 -200z"/>
<path style="fill:#e55f12" d="M2610 520 l0 -200 105 0 c98 0 105 1 105 20 0 18 -7 20 -80 20 l-80
0 0 180 0 180 -25 0 -25 0 0 -200z"/>
<path style="fill:#647d1d;" d="M3480 520 c0 -193 1 -200 20 -200 19 0 20 7 20 200 0 193 -1 200 -20
200 -19 0 -20 -7 -20 -200z"/>
</g>
</svg>
